# xmcd CD database file
#
# Track frame offsets:
#	150
#	20145
#	40802
#	62230
#	76672
#	101107
#	120160
#	142435
#	160290
#	177085
#	201315
#	225152
#	246957
#	268622
#	292312
#	315525
#
# Disc length: 4320 seconds
#
# Revision: 0
# Processed by: cddbd v1.5.1PL0 Copyright (c) Steve Scherf et al.
# Submitted via: CDex 1.51
#
DISCID=e610de10
DTITLE=BURGER INN RECOEDS - GREATEST HITS〜2000-2005〜
DYEAR=2005
DGENRE=JPop
TTITLE0=絶頂 dive to your heart - noyori feat. Little
TTITLE1=Down by Law feat. CRAZY-A - KICK THE CAN CREW
TTITLE2=タカオニ2000 - KICK THE CAN CREW
TTITLE3=灼熱舞踏会 - KICK THE CAN CREW
TTITLE4=HORIZON(Brutal Bill Hard Club Remix) - imajuku remix feat.BRATAL BILL
TTITLE5=今日から明日 - KICK THE CAN CREW
TTITLE6=スペースコロシアム - 東京U家族
TTITLE7=GOOD TIME!(ver.2001) - KICK THE CAN CREW
TTITLE8=X-amount(ver.2001) - KICK THE CAN CREW
TTITLE9=傘としずく - meg
TTITLE10=ジュ・テーム - virgin mary
TTITLE11=Over the Distance - THC!!
TTITLE12=針と糸 - CHABA
TTITLE13=communication - THC!!
TTITLE14=ずっと僕のそばに - 龍
TTITLE15=バーガーインレコード社歌(live) - KREVA
EXTD=YEAR: 2005
EXTT0=
EXTT1=
EXTT2=
EXTT3=
EXTT4=
EXTT5=
EXTT6=
EXTT7=
EXTT8=
EXTT9=
EXTT10=
EXTT11=
EXTT12=
EXTT13=
EXTT14=
EXTT15=
PLAYORDER=
